<?xml version="1.0" encoding="utf-8"?>
<!-- Generator: Adobe Illustrator 25.2.1, SVG Export Plug-In . SVG Version: 6.00 Build 0)  -->
<svg version="1.1" xmlns="http://www.w3.org/2000/svg" xmlns:xlink="http://www.w3.org/1999/xlink" x="0px" y="0px"
	 viewBox="0 0 500 500" style="enable-background:new 0 0 500 500;" xml:space="preserve">
<style type="text/css">
	.st0{fill:#BFD8D3;}
	.st1{fill:#9BBCB5;}
	.st2{fill:#8CAFA7;}
	.st3{fill:#EFF4F3;}
	.st4{fill:#EDD4CC;}
	.st5{fill:#B55454;}
	.st6{fill:#9E846F;}
	.st7{fill:#E4EAE9;}
	.st8{fill:#AF967E;}
	.st9{fill:#937764;}
	.st10{fill:#CE6E6E;}
	.st11{fill:#E5C6BE;}
	.st12{fill:#B7837D;}
	.st13{fill:#D69E96;}
	.st14{fill:#937B61;}
	.st15{fill:#6D5948;}
	.st16{fill:#FFFFFF;}
	.st17{fill:#D3E0DC;}
	.st18{fill:#544948;}
	.st19{fill:#EAC324;}
	.st20{opacity:0.51;}
	.st21{opacity:0.51;fill:#FFFFFF;}
	.st22{fill:#683E3A;}
	.st23{fill:#895F5C;}

	<!-- BOCA -->
#boca {
    animation: cerrarBoca 2s ease infinite;
	transform-origin: 45% 45%;
}

@keyframes cerrarBoca {
    0% {
        transform: scale(0.8,0.8);
    }
	 50% {
        transform: scale(1,1);
    }
	100% {
        transform: scale(0.8,0.8);
    }

    
}

<!-- LÁGRIMAS -->
#lagrima-izquierda, #lagrima-derecha {
	opacity: 0;
	animation: mostrarLagrimas 1.5s ease-in-out forwards;
}

@keyframes mostrarLagrimas {
	0% {
		opacity: 0;
	}
	100%{
		opacity: 1;
		}
}

<!-- GOTAS -->

#lagrimas-hacia-derecha {
	animation: moverGotasD 1s ease infinite;
}

@keyframes moverGotasD {
	0% {
		transform: translate(0px, -30px);
	}
	50% {
		transform: translate(-50px, -50px);
	}
	100% {
		transform: translate(0px, -30px);
	}
}

#lagrimas-hacia-izquierda {
	animation: moverGotasI 1s ease infinite;
	transform-origin: 50% 50%;

}

@keyframes moverGotasI {
	0% {
		transform: translate(0px, -10px);
	}
	50% {
		transform: translate(30px, -30px);
	}
	100% {
		transform: translate(-0px, -10px);
	}
}

<!-- CONEJO -->
#oreja-conejo {
	animation: moverOreja 2s ease-in-out infinite;
}

@keyframes moverOreja {
	0% {
		transform: translate(3px,5px) rotate(0deg);
	}

	50% {
		transform: translate(-10px, 10px) rotate(-5deg);
	}
	100% {
		transform: translate(3px, 5px) rotate(0deg);
	}
}

<!-- BRAZO -->

#brazo-izquierdo {
	animation: moverBrazo 2s ease infinite;
	transform-origin: 50% 50%;

}

@keyframes moverBrazo {
	0% {
		transform: rotate(-6deg) translate(0, 0);
	}
	50% {
		transform: rotate(0) translate(0, 5px);
	}
	100% {
		transform: rotate(-6deg) translate(0, 0);
	}
}

<!-- LETRA R -->
#numero4 {
	animation: numeroCayendo 3s ease-out forwards;
	transform-origin: 95% 80%;
}

@keyframes numeroCayendo {
	0%{
		transform: rotate(2deg) translate(0, 5px);
	}
	50% {
		transform: rotate(9deg) translate(15px, 20px) ;
	}
	100% {
		transform: rotate(-5deg) translate(5px,5px);
	}
}

</style>
<g id="BACKGROUND">
	<rect x="-0.11" class="st0" width="500" height="500"/>
	<path class="st1" d="M398.03,198.23c4.22,75.07-70.13,146.29-143.56,146.29s-147.1-74.29-147.1-149.48s66.32-127.9,139.75-127.9
		S393.08,110.2,398.03,198.23z"/>
	<path class="st2" d="M164.13,237.2c-14.35-43.25,17.87-96.68,60.83-108.3c42.95-11.62,97.81,20.17,109.71,64.16
		c11.9,43.98-13.49,83.95-56.44,95.57C235.27,300.25,180.96,287.91,164.13,237.2z"/>
</g>
<g id="brazo-izquierdo">
	<path class="st3" d="M262.85,219.39c0,0,38.32,7.91,73.93,54.61c0,0,0.89,5.58-6.4,5.58c0,0-20.64-21.07-42.83-22.45L262.85,219.39
		z"/>
	<path class="st4" d="M331.59,276.41c-0.48,1.26-3.85,13.54-2.31,14.5c2.03,1.19,3.15-6.72,3.62-8.08c0.34,1.52,0.76,2.49,1.99,4.6
		c0.75,1.29,3.2,6.12,4.45,5.58c1.33-0.54-0.23-3.95-1.32-6.64c-0.34-0.84-1.1-2.65-1.37-3.46c1.43,2.68,5.4,9.17,6.91,7.76
		c1.46-1.35-3.48-8.25-5-10.09c2.16,2.25,7.23,9.39,8.85,7.56c0.86-0.99-4.83-7.03-5.96-8.55c1.24,0.66,6.22,5.13,7.43,3.44
		c1.66-2.45-7.16-6.88-8.82-7.44C334.68,273.77,331.43,272.31,331.59,276.41"/>
</g>
<g id="bebé">
	<g>
		<g>
			<g>
				<g>
					<g>
						<g>
							<path class="st5" d="M266.73,221.63c3-3.21,6.3-6.16,10-8.55c3.25-2.09,11.2-6.32,13.22-5.85c2.46,0.58-1.88,3.23-2.43,3.61
								c-1.79,1.2-3.62,2.33-5.49,3.41c-4.32,2.48-8.81,4.56-13.43,6.41c-0.78,0.31-0.45,1.59,0.35,1.28
								c4.04-1.53,8.09-3.03,12.2-4.36c2.17-0.7,4.36-1.36,6.57-1.94c0.91-0.24,2.01-0.69,2.95-0.73c0.5-0.11,0.99-0.22,1.49-0.33
								c4.97-0.79,2.64,3.22,1.08,3.89c-3.08,2.73-9.87,3.03-13.62,3.23c-4.36,0.23-8.73,0.07-13.1,0.25
								c-0.78,0.03-0.79,1.23,0,1.22c6.31-0.12,12.75,0.3,19-0.8c2.92-0.52,11.09-2.16,11.58-6.29c0.49-4.15-5.59-2.69-7.51-2.23
								c-7.17,1.71-14.07,4.3-20.99,6.8c0.12,0.43,0.24,0.85,0.35,1.28c3.13-1.2,27.47-11.72,23.85-15.82
								c-1.96-2.21-9.91,2.14-12.08,3.22c-5.67,2.83-10.63,6.74-14.68,11.61C265.65,221.41,266.3,222.09,266.73,221.63
								L266.73,221.63z"/>
						</g>
						<g>
							<path class="st3" d="M187.51,275.57c0.56,0.97,1.12,1.93,1.68,2.9c0.28,0.48,0.56,0.97,0.97,1.36
								c0.34,0.32,0.75,0.55,1.16,0.76c2.43,1.22,5.21,1.73,7.91,1.46c-0.87-1.11-1.9-2.09-3.05-2.9c-0.41-0.29-0.84-0.56-1.21-0.9
								c-0.39-0.37-1.78-3.36-2.16-3.74c-1.25-1.27-3.25-2.63-4.99-2.23"/>
							<path class="st6" d="M199.38,300.2c1.67,3.24-0.1,8.95-2.36,10.11c-2.26,1.16-5.44-0.52-7.11-3.76s-1.19-6.81,1.07-7.97
								C193.24,297.42,197.71,296.96,199.38,300.2z"/>
							<g>
								<path class="st7" d="M218.13,316.33c0,0-20.14,13.18-35.96,15.95c0,0-9.42-12.84-13.22-12.35
									c-3.8,0.5,1.12,26.24,6.54,26.58c5.42,0.35,37.79,8.09,61.7-5.24L218.13,316.33z"/>
								<g>
									<path class="st6" d="M209.02,233.23c0,0,17.3-5.83,30.78-3.47l-23.78,17.01L209.02,233.23z"/>
									<g>
										<g>
											<g>
												<path class="st8" d="M226.32,254.07c0,0-5.07-13.4-15.43-21.39c0,0-3.75-28.68-17.81-31.1
													c-14.06-2.42-34.77,11.82-43.53,27.4c-8.76,15.58-24.17,67.69-8.5,70.91c15.67,3.22,14.14-57.64,14.14-57.64
													s-0.54,32.36,27.91,28.63c0,0-17.17,27.37-8.37,32.08c8.8,4.72,17.03-29.4,17.03-29.4l5.31-0.81
													c0,0-5.05,57.05,9.29,65.59c0,0,5.58,5.59,4.25-32.82l15.69-22.03V254.07z"/>
												<path class="st6" d="M166.81,268.32c0,0,17.78,8.85,36.54-19.61c0,0-1.64,15.94-20.24,22.17
													C183.11,270.89,175.84,272.92,166.81,268.32z"/>
												<path class="st9" d="M147.34,249.91c0,0-12.75,37.83-4.68,41.44C150.74,294.96,147.34,249.91,147.34,249.91z"/>
											</g>
											<g>
												<path class="st3" d="M248.62,223.46c0,0-6.77-0.13-30.2,16.95c0,0,1.9,2.44,3.79,5.55c2.8,4.62,4.07,8.04,4.07,8.04
													s-2.51,14.6-4.32,29.05c0,0-12.13,10.06-13.42,20.9c-1.29,10.84-5.99,49.62,58.78,49.54
													c8.48-0.01,24.44-3.73,31.01-15.22c9.29-16.25,16.33-92.78-37.67-117.21l-13.55,2.64"/>
												<path class="st5" d="M244.5,222.56c0,0-3.93,0.33-1.95,4.55c0,0-5.1-0.57-3.86,4.15c0,0-6.63-1.5-3.56,5.57
													c0,0-5.7-0.01-2.07,5.43c0,0-5.82,2.36-0.99,6.56c0,0-5.38,4.09,0.92,7.56c0,0-4.31,6.13,3.38,7.29
													c0,0-2.22,7.07,4.52,4.82c0,0,0.27,6.97,6.49,3.5c0,0,2.53,5.55,6.44,1.31c0,0,4.47,5.27,7.66-0.51
													c0,0,7.19,3.78,7.79-2.14c0,0,6.06,2.46,5.29-2.82c0,0,7.57,2.17,5.35-5.57c0,0,6.48-0.61,2.51-6.18
													c0,0,6.75-3.66,0.41-7.27c0,0,5.4-6.69-2.04-8.46c0,0,4.85-6.08-3.19-6.37c0,0,3.48-6.49-4.67-6.15
													c0,0,1.92-4.59-3.66-3.54c0,0,1.26-3.94-2.86-4.69l-1.06,2.96l3.93,4.2l4.4,12.93l-4.4,15.61l-18.59,3.1l-10.87-15.58
													v-8.83l7.32-10.29L244.5,222.56z"/>
												<path class="st10" d="M249.59,222.71c0,0-14.86,8.11-16.17,24.83c-1.17,14.93,9.35,30.16,33.51,22.43
													c24.16-7.73,16.7-32.83-1-47.64L249.59,222.71z"/>
												<path class="st3" d="M267.73,231.26c0,5.6-2.69,11.54-10.33,11.59c-9.74,0.07-11.7-7.02-11.7-12.62
													c0-5.6,3.83-9.18,10.33-9.18C262.52,221.05,267.73,225.65,267.73,231.26z"/>
												<g>
													<g>
														<path class="st11" d="M191.2,172.37c-1.5-0.41-3.01-0.81-4.51-1.22c-3.49-0.94-7.04-1.9-10.17-3.72
															c-1.64-0.95-3.2-2.19-4.03-3.89c-0.84-1.7-0.78-3.94,0.53-5.32c1.67-1.75,4.53-1.47,6.85-0.75
															c5,1.56,9.55,4.57,12.92,8.58"/>
														<g>
															<path class="st12" d="M175.52,162.18c1.86,0.63,3.77,1.11,5.64,1.71c1.86,0.6,3.69,1.43,5.59,1.85
																c0.69,0.15,1.1-0.76,0.48-1.15c-3.27-2.01-7.79-3.06-11.58-3.42C175.05,161.12,175,162.01,175.52,162.18
																L175.52,162.18z"/>
														</g>
													</g>
													<path class="st4" d="M259.76,237.68c0,0-10.01,4.58-13.5-9.75c-4.64-19.1-36.66-21.26-50.3-37.28
														c-10.76-12.65-24.31-45.9,14.25-68.96c38.56-23.05,88.44-10.42,105.2,11.34c16.77,21.77,6.81,48.67-13.3,61.26
														c-16.39,10.27-34.32,16.59-36.16,30.48C264.39,236.66,259.76,237.68,259.76,237.68z"/>
													<g>
														<path class="st12" d="M245.6,132.43c0.15,2.72,0.21,5.52,0.02,8.24c-0.11,1.56-0.18,3.73-2.05,4.42
															c-0.67,0.24-1.89-0.07-2.6-0.07c-2.74-0.01-5.9-0.1-6.75,3.14c-0.51,1.95,0.76,3.79,2.35,4.83
															c3.13,2.05,7.32,0.59,9.75-1.85c0.45-0.46,0-1.42-0.67-1.15c-2.38,0.94-8.44,4.03-9.51-0.43
															c-0.86-3.57,5.59-2.43,7.53-2.89c5.38-1.27,3.26-10.66,2.6-14.33C246.21,131.96,245.58,132.04,245.6,132.43
															L245.6,132.43z"/>
													</g>
													<path class="st13" d="M305.15,161.64c0,4.12-6.39,7.25-13.04,7.25s-12.03-3.34-12.03-7.45c0-4.12,6.53-7.04,13.18-7.04
														S305.15,157.52,305.15,161.64z"/>
													<path class="st13" d="M212.61,158.72c0,3.48-5.4,6.12-11.02,6.12c-5.61,0-9.09-2.64-9.09-6.12
														c0-3.48,4.45-6.12,10.06-6.12C208.18,152.6,212.61,155.24,212.61,158.72z"/>
													<g>
														<path class="st12" d="M228.07,201.7c8.95,6.45,20.92,10.4,31.85,6.6c0.43-0.15,0.39-0.83-0.11-0.83
															c-6.06,0.04-11.65,0.84-17.68-0.57c-4.78-1.13-9.52-3.24-13.74-5.75C228.03,200.94,227.74,201.47,228.07,201.7
															L228.07,201.7z"/>
													</g>
													<g>
														<path class="st4" d="M318.18,165.75c5.66-4.14,12.53-6.6,19.52-7c1.42-0.08,2.89-0.07,4.22,0.43
															c1.33,0.5,2.52,1.6,2.78,3c0.48,2.54-2.05,4.56-4.33,5.77c-8.07,4.27-17.17,6.56-26.29,6.62"/>
														<g>
															<path class="st12" d="M319.66,169.26c6.86-2.79,12.67-4.31,20.08-4.93c0.75-0.06,0.76-1.12,0-1.18
																c-6.82-0.54-14.75,1.67-20.2,5.82C319.42,169.07,319.48,169.33,319.66,169.26L319.66,169.26z"/>
														</g>
													</g>
													<g>
														<path class="st14" d="M271.5,119.47c0.11-0.53,0.71-0.8,1.25-0.86c1.59-0.18,3.1,0.72,4.38,1.68
															C289.35,129.47,270.41,124.77,271.5,119.47z"/>
														<path class="st14" d="M217.29,125.33c-0.25,0.37-0.49,0.78-0.51,1.23c-0.02,0.45,0.25,0.94,0.69,1.03
															c0.2,0.04,0.41,0,0.61-0.05c2.58-0.6,4.98-1.99,6.79-3.92c2.32-2.47,0.63-3.6-2.07-2.56
															C220.63,121.9,218.59,123.4,217.29,125.33z"/>
													</g>
												</g>
											</g>
											<path class="st4" d="M192.86,272.09c1.06-0.84,11.71-7.81,13.09-6.64c1.76,1.57-5.44,5.06-6.58,5.92
												c1.55-0.14,2.6-0.04,4.99,0.49c1.46,0.32,6.8,1.18,6.68,2.53c-0.11,1.43-3.83,0.99-6.72,0.77
												c-0.9-0.07-2.86-0.23-3.71-0.25c2.99,0.54,10.38,2.34,9.5,4.21c-0.84,1.81-8.92-0.79-11.14-1.67
												c2.8,1.37,11.16,4.01,9.9,6.11c-0.68,1.12-8.17-2.45-9.96-3.06c1.01,0.98,6.79,4.35,5.55,6.02
												c-1.83,2.34-8.55-4.87-9.78-6.12C193.44,279.14,189.73,274.45,192.86,272.09"/>
										</g>
										<g>
											<path class="st15" d="M181.96,220.37c0.01-0.01,0.02-0.02,0.03-0.04c0.34-0.49,0.34-1.35,0-1.84
												c-0.01-0.01-0.02-0.02-0.03-0.04c-0.49-0.69-1.27-1.11-2.14-0.87c-0.77,0.21-1.43,1-1.39,1.83
												c0.03,0.76,0.45,1.43,1.16,1.73C180.51,221.53,181.41,221.15,181.96,220.37L181.96,220.37z"/>
										</g>
										<g>
											<path class="st15" d="M175.79,250.99c0.81,0.06,1.4-0.21,2-0.73c1.22-1.05,0.61-3.4-0.98-3.71
												c-0.78-0.15-1.46-0.08-2.12,0.37c-0.78,0.53-1.31,1.51-1,2.47C173.99,250.36,174.79,250.91,175.79,250.99L175.79,250.99z
												"/>
										</g>
										<g>
											<path class="st15" d="M199.31,239.52c-0.65-2.77-0.84-5.44-1.06-8.26c-0.11-1.39-2.12-1.42-2.18,0
												c-0.13,2.96,0.79,6.11,2.11,8.74C198.5,240.65,199.47,240.18,199.31,239.52L199.31,239.52z"/>
										</g>
										<path class="st6" d="M189.01,214.53c0.45-2.58,2.4-4.4,4.34-4.06c1.94,0.34,3.9,1.87,3.45,4.45
											c-0.45,2.58-3.14,5.25-5.09,4.91C189.77,219.48,188.56,217.11,189.01,214.53z"/>
										<path class="st6" d="M188.92,255.19c0.08,2.29-1.25,4.19-2.97,4.25c-1.72,0.06-3.65-0.89-3.73-3.18
											c-0.08-2.29,1.74-5.05,3.45-5.1C187.39,251.09,188.84,252.9,188.92,255.19z"/>
									</g>
								</g>
							</g>
							<path class="st16" d="M296.93,343.23c0,0-31.53,25.76-73.07,1.77c0,0-10.93-15.95-3.28-39.71c0,0,33.44-4.88,62.68,0
								C283.26,305.3,283.24,337.7,296.93,343.23z"/>
							<g>
								<path class="st17" d="M245.69,282.02c6.9-0.44,13.67-0.43,20.44,1.22c6.85,1.67,12.67,4.88,18.59,8.57
									c0.47,0.29,1.04-0.41,0.6-0.78c-10.35-8.72-26.55-12.55-39.66-9.23C245.55,281.83,245.57,282.03,245.69,282.02
									L245.69,282.02z"/>
							</g>
							<g>
								<path class="st17" d="M271.08,278.19c2.44,1.39,5.04,2.42,7.42,3.92c2.36,1.48,4.48,3.34,6.89,4.74
									c0.15,0.09,0.37-0.1,0.26-0.26c-2.96-4.34-9.15-8.07-14.24-9.19C270.95,277.31,270.65,277.94,271.08,278.19L271.08,278.19z"
									/>
							</g>
							<path class="st3" d="M292.07,339.98c0,0-6.56-33.06,4.09-36.86s33.64,26.48,38.69,33.21c0,0,3.93-13.74,8.97-12.9
								c5.05,0.84,9.21,30.37-6.05,30.04C322.51,353.16,303.7,348.96,292.07,339.98z"/>
							<g>
								<path class="st16" d="M347.35,329.27c-0.23-0.06-0.46-0.1-0.7-0.1c-3.41,0-6.17,6.33-6.17,14.15c0,4.05,0.75,7.1,1.94,9.1
									C349.07,348.78,349.31,336.65,347.35,329.27z"/>
							</g>
							<g>
								<path class="st16" d="M173.22,334.77c-1.28-4.48-3.41-8.84-5.61-11.43c-0.25,5.95,2.46,17.98,5.83,21.91
									C174.47,342.98,174.55,339.42,173.22,334.77z"/>
							</g>
						</g>
						<path class="st5" d="M256.47,265.41c-1.24-1.04-6.24-8.35-6.76-9.43c-1.02-2.12-2.05-4.28-2.39-6.61
							c-0.1-0.66-0.1-1.43,0.38-1.9c0.66-0.64,1.76-0.31,2.55,0.16c2.31,1.38,4.8,8.13,5.58,9.27c1.16-2.96,1.95-4.71,3.67-6.87
							c0.67-0.85,1.66-1.67,2.72-1.43c0.93,0.21,1.5,1.22,1.54,2.17C263.78,251.73,262.1,259.25,256.47,265.41"/>
					</g>
					<g>
						<g>
							<g>
								<path class="st18" d="M248.06,306.72c-2.1,0.8-6.79,4.21-4.31,6.91c1.38,1.5,4,0.3,5.5-0.34c3.93-1.67,7.57-4.19,10.95-6.78
									c1.92-1.47,6.45-4.21,6.75-6.88c0.02-0.22-0.25-0.34-0.42-0.24c-1.26,0.75-2.24,2.32-3.33,3.32
									c-2.21,2.03-4.63,3.86-7.11,5.54c-2.09,1.42-4.27,2.81-6.58,3.85c-0.69,0.31-2.21,1.16-3.04,1.05
									c-1.6-0.21-1.78-2.06-1.05-3.38c0.58-1.05,1.91-1.87,2.9-2.48C248.59,307.11,248.41,306.59,248.06,306.72L248.06,306.72z"/>
							</g>
							<g>
								<path class="st18" d="M244.12,312.31c0.39-0.86,1.19-1.44,2.18-1.09c0.77,0.27,0.78,0.97,0.22,1.46
									c-0.49,0.44-0.99,0.42-1.59,0.25c-0.54-0.15-0.71,0.62-0.22,0.82c0.88,0.36,1.83,0.15,2.5-0.53
									c0.62-0.63,0.75-1.68,0.04-2.29c-1.05-0.9-3.81-0.42-3.49,1.33C243.77,312.42,244.05,312.46,244.12,312.31L244.12,312.31z"
									/>
							</g>
						</g>
						<g>
							<path class="st18" d="M256.77,301.5c1.92-1.29,3.54-2.74,5.69-3.66c0.35-0.15,0.25-0.74-0.11-0.81
								c-1.07-0.22-2.26,0.7-3.08,1.28c-1.07,0.76-2.09,1.59-3.05,2.49C255.87,301.14,256.35,301.78,256.77,301.5L256.77,301.5z"/>
						</g>
						<g>
							<path class="st19" d="M264.4,298.54c0,0-1.35,3.39,2.08,3.35c3.16-0.04,1.8-3.88,1.8-3.88s3.02,2.01,3.51-0.8
								c0.52-3.04-2.78-2.4-2.78-2.4s2.96-1.68,0.16-3.42c-2.8-1.74-3.02,1.99-3.02,1.99s-0.54-2.91-2.75-1.99
								c-1.91,0.79-2.03,2.87,0.29,3.63c0,0-4.38,0.78-3,3.12C262.06,300.47,263.65,299.19,264.4,298.54z"/>
							<path class="st16" d="M268.2,296.14c0.04,1.08-0.79,1.98-1.87,2.02c-1.08,0.04-1.98-0.79-2.02-1.87
								c-0.04-1.08,0.81-1.6,1.89-1.65C267.26,294.61,268.16,295.06,268.2,296.14z"/>
						</g>
					</g>
					<g>
						<g>
							<path class="st6" d="M161.96,226.07c1.25,0.3,2.53,0.67,3.82,0.8c0.33,0.03,0.33-0.43,0.07-0.53
								c-1.18-0.46-2.46-0.7-3.69-0.99C161.7,225.24,161.5,225.96,161.96,226.07L161.96,226.07z"/>
						</g>
						<g>
							<path class="st6" d="M162.22,231.49c0.98,0.08,1.95,0.2,2.93,0.21c0.29,0,0.36-0.45,0.07-0.51c-0.99-0.2-2-0.3-3-0.43
								C161.76,230.7,161.75,231.45,162.22,231.49L162.22,231.49z"/>
						</g>
						<g>
							<path class="st6" d="M161.76,236.43c1.14,0,2.33,0.08,3.46-0.14c0.22-0.04,0.22-0.4,0-0.44c-1.13-0.22-2.32-0.14-3.46-0.14
								C161.29,235.7,161.29,236.43,161.76,236.43L161.76,236.43z"/>
						</g>
						<g>
							<path class="st6" d="M172.57,210.98c0.51,0.36,1.03,0.72,1.57,1.05c0.24,0.15,0.54-0.22,0.31-0.4
								c-0.51-0.41-1.04-0.78-1.58-1.16C172.56,210.25,172.26,210.77,172.57,210.98L172.57,210.98z"/>
						</g>
						<g>
							<path class="st6" d="M177.38,210.18c0.74,0.44,1.47,0.89,2.22,1.3c0.16,0.09,0.28-0.13,0.14-0.24
								c-0.69-0.51-1.4-0.99-2.11-1.49C177.37,209.58,177.11,210.02,177.38,210.18L177.38,210.18z"/>
						</g>
						<g>
							<path class="st6" d="M164.41,258.77c0.5-0.26,1-0.52,1.5-0.79c0.44-0.24,0.96-0.46,1.29-0.86c0.11-0.14,0.06-0.42-0.16-0.39
								c-0.5,0.05-0.96,0.33-1.4,0.56c-0.53,0.28-1.05,0.58-1.58,0.86C163.65,258.38,164,258.98,164.41,258.77L164.41,258.77z"/>
						</g>
						<g>
							<path class="st6" d="M167.03,261.74c0.2-0.22,0.39-0.43,0.59-0.65c0.19-0.2-0.1-0.49-0.3-0.3c-0.22,0.2-0.43,0.39-0.65,0.59
								C166.43,261.6,166.81,261.98,167.03,261.74L167.03,261.74z"/>
						</g>
						<g>
							<path class="st6" d="M171.81,264.37c0.27-0.39,0.53-0.77,0.81-1.15c0.16-0.23-0.19-0.48-0.38-0.29
								c-0.34,0.33-0.68,0.66-1.02,0.98C170.84,264.28,171.49,264.84,171.81,264.37L171.81,264.37z"/>
						</g>
						<g>
							<path class="st6" d="M211.96,240.19c0.58,0.32,1.16,0.65,1.74,0.97c0.52,0.29,1.04,0.66,1.63,0.76
								c0.19,0.03,0.31-0.17,0.18-0.32c-0.4-0.45-0.98-0.7-1.5-0.99c-0.58-0.32-1.16-0.65-1.74-0.97
								C211.93,239.44,211.61,239.99,211.96,240.19L211.96,240.19z"/>
						</g>
						<g>
							<path class="st6" d="M211.03,243.45c0.43,0.29,0.85,0.57,1.28,0.84c0.21,0.13,0.46-0.18,0.27-0.35
								c-0.38-0.34-0.77-0.67-1.17-1C211.06,242.65,210.65,243.19,211.03,243.45L211.03,243.45z"/>
						</g>
						<g>
							<path class="st6" d="M206.49,250.04c0.4,0.47,0.79,0.93,1.19,1.4c0.32,0.38,0.63,0.94,1.12,1.1c0.2,0.07,0.34-0.13,0.31-0.31
								c-0.08-0.49-0.62-0.91-0.94-1.28c-0.4-0.46-0.8-0.93-1.2-1.39C206.68,249.23,206.21,249.71,206.49,250.04L206.49,250.04z"/>
						</g>
						<g>
							<path class="st6" d="M205.1,252.83c0.37,0.29,0.71,0.61,1.02,0.97c0.25,0.29,0.47,0.77,0.88,0.83
								c0.11,0.02,0.24-0.03,0.26-0.15c0.1-0.46-0.3-0.83-0.59-1.13c-0.37-0.37-0.78-0.7-1.22-0.98
								C205.18,252.19,204.83,252.62,205.1,252.83L205.1,252.83z"/>
						</g>
						<g>
							<path class="st6" d="M209.67,263.39c0.34,0.35,0.66,0.71,0.96,1.09c0.27,0.35,0.51,0.8,0.89,1.05
								c0.26,0.17,0.52-0.11,0.47-0.36c-0.08-0.45-0.46-0.85-0.74-1.19c-0.32-0.4-0.67-0.77-1.03-1.13
								C209.86,262.48,209.31,263.03,209.67,263.39L209.67,263.39z"/>
						</g>
						<g>
							<path class="st6" d="M216.86,255.87c0.56,0.24,1.1,0.5,1.62,0.8c0.47,0.27,0.93,0.69,1.45,0.81c0.24,0.06,0.46-0.2,0.32-0.42
								c-0.3-0.49-0.9-0.79-1.38-1.07c-0.55-0.32-1.13-0.59-1.72-0.83C216.76,255,216.46,255.7,216.86,255.87L216.86,255.87z"/>
						</g>
						<g>
							<path class="st6" d="M219.09,254.22c0.49,0.31,0.98,0.61,1.47,0.92c0.44,0.28,0.88,0.61,1.38,0.76
								c0.22,0.07,0.36-0.21,0.21-0.37c-0.36-0.38-0.85-0.62-1.3-0.9c-0.49-0.3-0.99-0.61-1.48-0.91
								C219.06,253.53,218.78,254.02,219.09,254.22L219.09,254.22z"/>
						</g>
						<g>
							<path class="st6" d="M217.33,270.41c0.45,0.59,0.96,1.05,1.61,1.41c0.24,0.13,0.52-0.2,0.3-0.39
								c-0.47-0.41-0.88-0.89-1.21-1.43C217.76,269.54,217.03,270,217.33,270.41L217.33,270.41z"/>
						</g>
						<g>
							<path class="st6" d="M213.48,280.5c0.21,0.79,0.43,1.58,0.78,2.33c0.09,0.19,0.43,0.1,0.41-0.11
								c-0.08-0.82-0.29-1.62-0.5-2.41C214.05,279.86,213.36,280.05,213.48,280.5L213.48,280.5z"/>
						</g>
						<g>
							<path class="st6" d="M216.28,282.11c0.17,0.19,0.34,0.38,0.51,0.57c0.12,0.14,0.36-0.04,0.26-0.2
								c-0.14-0.22-0.27-0.43-0.41-0.65C216.47,281.55,216.06,281.86,216.28,282.11L216.28,282.11z"/>
						</g>
						<g>
							<path class="st6" d="M184.41,273.51c-0.24,0.68-0.35,1.38-0.29,2.11c0.02,0.19,0.33,0.27,0.36,0.05
								c0.11-0.66,0.3-1.28,0.62-1.86C185.37,273.33,184.6,272.98,184.41,273.51L184.41,273.51z"/>
						</g>
						<g>
							<path class="st6" d="M187.24,275.61c-0.06,0.74-0.29,1.41-0.46,2.12c-0.05,0.19,0.2,0.28,0.31,0.13
								c0.45-0.62,0.64-1.42,0.75-2.17C187.91,275.26,187.28,275.17,187.24,275.61L187.24,275.61z"/>
						</g>
						<g>
							<path class="st6" d="M179.61,283.18c0.06,0.62-0.09,1.24-0.03,1.85c0.02,0.24,0.32,0.35,0.47,0.13
								c0.36-0.55,0.34-1.35,0.3-1.98C180.32,282.71,179.57,282.72,179.61,283.18L179.61,283.18z"/>
						</g>
						<g>
							<path class="st6" d="M183.82,281.18c-0.01,0.46-0.07,0.91-0.2,1.35c-0.11,0.38-0.29,0.74-0.33,1.13
								c-0.02,0.24,0.3,0.33,0.45,0.19c0.65-0.6,0.73-1.84,0.73-2.67C184.48,280.75,183.83,280.75,183.82,281.18L183.82,281.18z"/>
						</g>
					</g>
					<g>
						<path class="st6" d="M200.77,294.15c0,0.67,0,1.33,0.01,2c0,0.59-0.05,1.21,0.18,1.76c0.08,0.19,0.31,0.19,0.38,0
							c0.23-0.55,0.17-1.18,0.18-1.76c0-0.67,0.01-1.33,0.01-2C201.53,293.67,200.77,293.66,200.77,294.15L200.77,294.15z"/>
					</g>
					<g>
						<path class="st6" d="M205.6,292.61c0.02,0.48,0.05,0.95,0.07,1.43c0.02,0.41,0.03,0.79,0.27,1.14c0.07,0.11,0.25,0.13,0.32,0
							c0.2-0.37,0.17-0.73,0.14-1.14c-0.04-0.48-0.07-0.95-0.1-1.43C206.28,292.16,205.58,292.15,205.6,292.61L205.6,292.61z"/>
					</g>
					<g>
						<path class="st6" d="M202.64,304.66c-0.02,0.42-0.06,0.83-0.06,1.25c0,0.38-0.04,0.74,0.13,1.09c0.11,0.22,0.48,0.22,0.59,0
							c0.17-0.35,0.13-0.71,0.13-1.09c0-0.42-0.04-0.83-0.06-1.25C203.34,304.19,202.67,304.19,202.64,304.66L202.64,304.66z"/>
					</g>
					<g>
						<path class="st6" d="M200.31,307.29c-0.15,1.17-0.31,2.82,0.32,3.88c0.17,0.28,0.55,0.14,0.58-0.16
							c0.06-0.61-0.11-1.24-0.15-1.85c-0.03-0.63-0.01-1.25,0.07-1.87C201.19,306.76,200.38,306.78,200.31,307.29L200.31,307.29z"/>
					</g>
					<g>
						<path class="st6" d="M205.26,312.64c0.18,0.6,0.29,1.21,0.3,1.84c0.01,0.51-0.12,1.04,0.05,1.53c0.05,0.15,0.28,0.25,0.39,0.1
							c0.73-0.92,0.3-2.65-0.02-3.67C205.84,311.98,205.12,312.18,205.26,312.64L205.26,312.64z"/>
					</g>
					<g>
						<path class="st6" d="M202.65,324.43c-0.06,0.71-0.05,1.4,0.09,2.1c0.11,0.57,0.23,1.23,0.73,1.56
							c0.15,0.1,0.41,0.01,0.44-0.18c0.1-0.53-0.17-0.99-0.3-1.5c-0.16-0.65-0.25-1.31-0.26-1.98
							C203.35,323.97,202.69,323.99,202.65,324.43L202.65,324.43z"/>
					</g>
					<g>
						<path class="st6" d="M205.16,324.83c0.15,0.74,0.19,1.69,0.56,2.36c0.13,0.24,0.45,0.11,0.48-0.13
							c0.04-0.39-0.07-0.78-0.15-1.16c-0.08-0.42-0.17-0.83-0.25-1.25C205.71,324.24,205.08,324.42,205.16,324.83L205.16,324.83z"/>
					</g>
					<g>
						<path class="st6" d="M178.2,296.23c0.3-0.37,0.56-0.75,0.75-1.19c0.15-0.36,0.39-0.81,0.18-1.17
							c-0.09-0.16-0.28-0.15-0.41-0.05c-0.26,0.21-0.26,0.6-0.38,0.9c-0.15,0.38-0.35,0.74-0.61,1.06
							C177.48,296.1,177.93,296.56,178.2,296.23L178.2,296.23z"/>
					</g>
					<g>
						<path class="st6" d="M180.38,297.02c0.31-0.34,0.61-0.68,0.92-1.03c0.27-0.3,0.59-0.59,0.7-0.99
							c0.08-0.29-0.23-0.48-0.47-0.36c-0.36,0.18-0.59,0.55-0.83,0.86c-0.27,0.34-0.53,0.68-0.8,1.02
							C179.62,296.87,180.07,297.36,180.38,297.02L180.38,297.02z"/>
					</g>
					<g>
						<path class="st6" d="M179.21,262.24c-0.2,0.61-0.47,1.21-0.81,1.77c-0.29,0.49-0.73,0.92-0.92,1.46
							c-0.11,0.31,0.26,0.51,0.51,0.39c0.58-0.28,0.95-0.94,1.25-1.48c0.34-0.61,0.58-1.25,0.74-1.93
							C180.11,261.95,179.37,261.75,179.21,262.24L179.21,262.24z"/>
					</g>
					<g>
						<path class="st6" d="M202.46,221.77c0.31-0.25,0.62-0.49,0.93-0.74c0.26-0.2,0.52-0.34,0.5-0.7c0-0.1-0.07-0.22-0.18-0.24
							c-0.37-0.07-0.52,0.12-0.78,0.37c-0.31,0.29-0.62,0.57-0.93,0.86C201.69,221.6,202.14,222.02,202.46,221.77L202.46,221.77z"/>
					</g>
					<g>
						<path class="st6" d="M148.8,238.21c-0.64,0.84-1.41,1.83-1.61,2.89c-0.04,0.18,0.2,0.37,0.34,0.2
							c0.69-0.82,1.14-1.83,1.8-2.68C149.63,238.24,149.1,237.82,148.8,238.21L148.8,238.21z"/>
					</g>
					<g>
						<path class="st6" d="M151.22,240.3c-0.28,0.68-0.58,1.34-0.77,2.06c-0.07,0.25,0.27,0.39,0.41,0.17
							c0.4-0.62,0.7-1.29,1.01-1.95C152.09,240.11,151.42,239.82,151.22,240.3L151.22,240.3z"/>
					</g>
					<g>
						<path class="st6" d="M158.36,212.95c0.6,0.05,1.19,0.11,1.78,0.2c0.48,0.08,0.98,0.23,1.47,0.21c0.3-0.01,0.48-0.46,0.17-0.61
							c-0.97-0.46-2.36-0.46-3.41-0.53C157.89,212.2,157.89,212.92,158.36,212.95L158.36,212.95z"/>
					</g>
					<g>
						<path class="st6" d="M157.36,216.1c0.43,0.06,0.85,0.15,1.26,0.26c0.38,0.1,0.76,0.29,1.16,0.27
							c0.21-0.01,0.38-0.29,0.19-0.45c-0.33-0.28-0.76-0.34-1.18-0.42c-0.45-0.09-0.9-0.15-1.36-0.19
							C157.12,215.53,157.05,216.05,157.36,216.1L157.36,216.1z"/>
					</g>
					<g>
						<path class="st6" d="M128.63,234.54c0.59-0.25,1.19-0.5,1.78-0.75c0.46-0.2,0.94-0.33,1.24-0.75c0.07-0.11,0-0.3-0.13-0.32
							c-0.52-0.07-0.93,0.17-1.4,0.38c-0.59,0.26-1.18,0.53-1.76,0.79C127.99,234.05,128.25,234.7,128.63,234.54L128.63,234.54z"/>
					</g>
					<g>
						<path class="st6" d="M150.95,264.89c-0.08,0.57-0.18,1.13-0.24,1.7c-0.07,0.56-0.24,1.15-0.1,1.7
							c0.06,0.24,0.37,0.25,0.5,0.06c0.29-0.43,0.3-1,0.35-1.51c0.06-0.64,0.03-1.25-0.04-1.89
							C151.39,264.71,150.99,264.61,150.95,264.89L150.95,264.89z"/>
					</g>
					<g>
						<path class="st6" d="M136.94,285.19c-0.02,1.19-0.15,2.46,0.19,3.61c0.06,0.2,0.38,0.22,0.42,0c0.22-1.18-0.04-2.43-0.17-3.61
							C137.35,284.92,136.94,284.9,136.94,285.19L136.94,285.19z"/>
					</g>
					<path class="st9" d="M190.82,237.24c-0.15,2.31-3.53,5.08-4.59,5.01c-1.06-0.07-7.79-3.87-7.64-6.19
						c0.15-2.31,7.67-2.15,8.73-2.08C188.38,234.05,190.97,234.93,190.82,237.24z"/>
					<path class="st18" d="M190.82,237.24c-0.15,2.31-3.53,5.08-4.59,5.01c-1.06-0.07-1.25-1.89-1.1-4.2
						c0.15-2.31,1.13-4.14,2.19-4.07C188.38,234.05,190.97,234.93,190.82,237.24z"/>
				</g>
				<g class="st20">
					<path class="st16" d="M92.87,329.26l0.05-0.01c0.06,0.09,0.11,0.18,0.17,0.26C93.02,329.42,92.94,329.34,92.87,329.26z"/>
				</g>
				<path class="st21" d="M352.89,139.81c0,0,7.69,1.67,6.34,5.22C357.89,148.57,354.16,141.76,352.89,139.81z"/>
				<path class="st21" d="M168.2,140.17c0,0-11.19-2.41-11.54,3.1C156.3,148.77,165.35,141.99,168.2,140.17z"/>
				<path class="st21" d="M381.9,308.2c0,0-10.92-3.64-6.72-7.51C378.31,297.8,382.4,304.09,381.9,308.2z"/>
			</g>
		</g>
		<g>
			<g>
				<path class="st0" d="M205.82,80.2c-0.21-0.01-0.41-0.03-0.62-0.03c-1.4,0-1.4,2.17,0,2.17c0.21,0,0.41-0.01,0.62-0.03
					C207.18,82.24,207.18,80.28,205.82,80.2L205.82,80.2z"/>
			</g>
			<g>
				<path class="st1" d="M311.07,64.83c1.77,0,1.78-2.76,0-2.76C309.3,62.08,309.3,64.83,311.07,64.83L311.07,64.83z"/>
			</g>
			<g>
				<path class="st1" d="M345.13,64.96c1.93,0,1.94-3,0-3C343.2,61.95,343.19,64.96,345.13,64.96L345.13,64.96z"/>
			</g>
			<g>
				<path class="st1" d="M414.14,162.13c-0.03,0.2-0.06,0.4-0.09,0.6c-0.08,0.55-0.04,1.11,0.4,1.51c0.3,0.28,0.68,0.46,1.1,0.46
					c0.4,0,0.82-0.17,1.1-0.46c0.43-0.43,0.48-0.95,0.4-1.51c-0.03-0.2-0.06-0.4-0.09-0.6c-0.09-0.6-0.83-1.1-1.41-1.08
					C414.97,161.08,414.24,161.49,414.14,162.13L414.14,162.13z"/>
			</g>
			<g>
				<path class="st1" d="M383.83,291.46c1.59,0,1.59-2.47,0-2.47C382.24,288.99,382.23,291.46,383.83,291.46L383.83,291.46z"/>
			</g>
			<g>
				<path class="st1" d="M363.7,353.91c2.27,0,2.28-3.53,0-3.53C361.43,350.38,361.43,353.91,363.7,353.91L363.7,353.91z"/>
			</g>
			<g>
				<path class="st1" d="M424.46,427.37c-0.29,0.1-0.58,0.19-0.86,0.33c-0.8,0.43-0.8,1.7,0,2.13c0.27,0.15,0.56,0.24,0.86,0.33
					c0.9,0.29,1.83-0.49,1.83-1.4C426.29,427.86,425.36,427.07,424.46,427.37L424.46,427.37z"/>
			</g>
			<g>
				<path class="st1" d="M414.78,447.34c1,0,1-1.55,0-1.55C413.78,445.79,413.78,447.34,414.78,447.34L414.78,447.34z"/>
			</g>
			<g>
				<path class="st1" d="M85.08,377.23c1.41,0,1.41-2.19,0-2.19C83.67,375.04,83.67,377.23,85.08,377.23L85.08,377.23z"/>
			</g>
			<g>
				<path class="st1" d="M94.37,415c2.21,0,2.21-3.43,0-3.43C92.16,411.57,92.16,415,94.37,415L94.37,415z"/>
			</g>
			<g>
				<path class="st1" d="M58.91,70.96c0.12-0.16,0.24-0.31,0.32-0.49c0.09-0.21,0.06-0.44,0.14-0.66c0.14-0.44-0.32-0.9-0.76-0.76
					c-0.22,0.07-0.44,0.05-0.66,0.14c-0.18,0.08-0.33,0.2-0.49,0.32c-0.54,0.4-0.73,1.15-0.21,1.66
					C57.75,71.68,58.51,71.5,58.91,70.96L58.91,70.96z"/>
			</g>
			<g>
				<path class="st1" d="M60.83,109.88c0.26-0.36,0.47-0.66,0.64-1.07c0.36-0.89-0.73-1.98-1.62-1.62
					c-0.41,0.17-0.72,0.38-1.07,0.64c-0.77,0.56-1.03,1.63-0.3,2.36C59.2,110.9,60.27,110.65,60.83,109.88L60.83,109.88z"/>
			</g>
			<g>
				<path class="st1" d="M105.2,68.44c1.43,0,1.43-2.23,0-2.23C103.77,66.21,103.77,68.44,105.2,68.44L105.2,68.44z"/>
			</g>
			<g>
				<path class="st1" d="M65.73,221.61c1.34,0,1.34-2.08,0-2.08C64.39,219.53,64.39,221.61,65.73,221.61L65.73,221.61z"/>
			</g>
			<g>
				<path class="st1" d="M449.61,63.87c1.52,0,1.53-2.37,0-2.37C448.09,61.5,448.09,63.87,449.61,63.87L449.61,63.87z"/>
			</g>
			<g>
				<path class="st1" d="M50.25,454.57c1.34,0,1.34-2.08,0-2.08C48.91,452.49,48.91,454.57,50.25,454.57L50.25,454.57z"/>
			</g>
			<g>
				<path class="st1" d="M448.06,96.69c1.93,0,1.94-3,0-3C446.13,93.69,446.13,96.69,448.06,96.69L448.06,96.69z"/>
			</g>
			<g>
				<path class="st1" d="M134.61,100.15c1.41,0,1.41-2.19,0-2.19C133.2,97.96,133.2,100.15,134.61,100.15L134.61,100.15z"/>
			</g>
			<g>
				<path class="st0" d="M124.55,201.82c1.77,0,1.78-2.76,0-2.76C122.78,199.07,122.77,201.82,124.55,201.82L124.55,201.82z"/>
			</g>
			<g>
				<path class="st0" d="M141.09,204.58c0.5-0.19,1.19-0.37,1.19-1.04c0-0.67-0.69-0.84-1.19-1.04c-0.67-0.26-1.36,0.39-1.36,1.04
					C139.73,204.19,140.43,204.84,141.09,204.58L141.09,204.58z"/>
			</g>
			<g>
				<path class="st0" d="M315.72,296.05c1.52,0,1.53-2.37,0-2.37C314.19,293.69,314.19,296.05,315.72,296.05L315.72,296.05z"/>
			</g>
			<g>
				<path class="st0" d="M368.86,192.89c0.05,0.02,0.09,0.03,0.14,0.05c-0.21-0.16-0.42-0.32-0.62-0.48
					c0.36,0.67,0.92,1.14,1.73,1.03c0.75-0.1,1.41-0.77,1.38-1.56c-0.03-0.73-0.47-1.31-1.17-1.53c-0.85-0.28-1.57,0.31-1.94,1.01
					c0.21-0.16,0.42-0.32,0.62-0.48c-0.05,0.02-0.09,0.03-0.14,0.05C367.92,191.33,367.92,192.54,368.86,192.89L368.86,192.89z"/>
			</g>
		</g>
	</g>
</g>
<g id="texto">
	<g>
		<path class="st2" d="M122.29,457.47c-0.03,0.13-0.09,0.38-0.18,0.74c-0.05,0.21-0.08,0.46-0.12,0.74h-4.42
			c-0.02-0.76-0.06-2.02-0.12-3.78c-0.04-0.9-0.12-2.14-0.23-3.72h3.39l-0.28,6.22c0.32,0,0.79-0.03,1.42-0.1
			C121.89,457.56,122.06,457.52,122.29,457.47z"/>
		<path class="st2" d="M129.52,455.04c0,1.15-0.3,2.12-0.89,2.92c-0.62,0.83-1.42,1.25-2.39,1.25c-1,0-1.81-0.42-2.43-1.25
			c-0.58-0.79-0.87-1.76-0.87-2.91c0-1.23,0.32-2.19,0.95-2.89c0.6-0.66,1.38-0.99,2.35-0.99c0.95,0,1.73,0.33,2.32,0.99
			C129.2,452.86,129.52,453.82,129.52,455.04z M127.17,455.9c0-0.91-0.31-1.36-0.92-1.36c-0.6,0-0.89,0.46-0.89,1.37
			c0,0.36,0.08,0.71,0.23,1.02c0.18,0.35,0.39,0.53,0.65,0.53c0.25,0,0.47-0.18,0.66-0.54C127.08,456.59,127.17,456.25,127.17,455.9
			z"/>
		<path class="st2" d="M137.44,454.52c-0.24-0.06-0.42-0.08-0.55-0.08c-0.15,0-0.29,0.05-0.42,0.16c-0.15,0.13-0.23,0.29-0.23,0.49
			c0,0.16,0.14,0.46,0.42,0.9s0.42,0.86,0.42,1.23c0,0.54-0.21,0.99-0.62,1.34c-0.39,0.33-0.88,0.5-1.46,0.5
			c-0.53,0-0.93-0.04-1.18-0.11c-0.03-0.15-0.08-0.39-0.15-0.73c-0.05-0.18-0.11-0.42-0.19-0.73c0.36,0.09,0.6,0.13,0.72,0.13
			c0.48,0,0.73-0.18,0.73-0.55c0-0.27-0.1-0.51-0.29-0.72c-0.32-0.28-0.64-0.56-0.96-0.84c-0.62-0.55-0.93-1.2-0.93-1.95
			c0-0.78,0.29-1.38,0.88-1.78c0.51-0.35,1.19-0.53,2.04-0.53c0.48,0,1.02,0.07,1.62,0.21L137.44,454.52z"/>
		<path class="st2" d="M141.66,451.45l-0.19,3.99c-0.04,0.86-0.08,2.03-0.13,3.51h-2.74l-0.33-7.5H141.66z"/>
		<path class="st2" d="M147.64,451.45l-0.21,3.09c-0.12-0.02-0.38-0.05-0.78-0.1c-0.27-0.03-0.57-0.04-0.9-0.05l-0.07,0.93
			c0.36,0.01,0.94,0,1.75-0.02c-0.04,0.12-0.09,0.34-0.17,0.67c-0.05,0.2-0.09,0.43-0.12,0.69c-0.09-0.02-0.33-0.05-0.71-0.09
			c-0.18-0.01-0.44-0.01-0.78-0.01l-0.05,1.09c0.24,0,0.69-0.02,1.35-0.06c0.12-0.01,0.33-0.05,0.61-0.12
			c-0.03,0.1-0.09,0.34-0.18,0.73c-0.05,0.2-0.1,0.45-0.17,0.75h-4.37l-0.14-3.83c-0.03-0.88-0.09-2.1-0.19-3.67H147.64z"/>
		<path class="st2" d="M154.51,451.45c-0.05,0.66-0.11,1.8-0.19,3.44c-0.05,1.2-0.09,2.59-0.12,4.16c-0.43-0.33-1.08-0.83-1.95-1.5
			c-0.38-0.26-0.94-0.66-1.69-1.19l-0.05,2.59h-1.57c-0.03-0.66-0.09-1.91-0.18-3.74c-0.08-1.48-0.16-2.74-0.25-3.76h2.45l1.82,1.72
			c0-0.39-0.01-0.7-0.02-0.93c-0.01-0.2-0.03-0.46-0.06-0.79H154.51z"/>
		<path class="st2" d="M161.33,451.45l-0.14,3.07c-0.13-0.02-0.33-0.04-0.61-0.07c-0.17-0.01-0.45-0.02-0.84-0.03
			c-0.02,0.19-0.05,0.66-0.1,1.39c-0.04,0.71-0.09,1.76-0.18,3.14h-2.36c-0.03-0.66-0.07-1.69-0.15-3.1
			c-0.03-0.49-0.07-0.96-0.1-1.43l-0.77,0.03l-0.7,0.07l-0.12-3.07H161.33z"/>
		<path class="st2" d="M168.61,455.04c0,1.15-0.3,2.12-0.89,2.92c-0.62,0.83-1.42,1.25-2.39,1.25c-1,0-1.81-0.42-2.43-1.25
			c-0.58-0.79-0.87-1.76-0.87-2.91c0-1.23,0.32-2.19,0.95-2.89c0.6-0.66,1.38-0.99,2.35-0.99c0.95,0,1.73,0.33,2.32,0.99
			C168.29,452.86,168.61,453.82,168.61,455.04z M166.26,455.9c0-0.91-0.31-1.36-0.92-1.36c-0.6,0-0.89,0.46-0.89,1.37
			c0,0.36,0.08,0.71,0.23,1.02c0.18,0.35,0.39,0.53,0.65,0.53c0.25,0,0.47-0.18,0.66-0.54C166.18,456.59,166.26,456.25,166.26,455.9
			z"/>
		<path class="st2" d="M171.43,458.62c-0.18,0.8-0.49,1.45-0.92,1.94c-0.06-0.01-0.18-0.03-0.36-0.07c-0.1-0.02-0.23-0.07-0.41-0.13
			c0.15-0.63,0.23-1.12,0.22-1.47c0-0.28-0.06-0.67-0.18-1.17c0.16-0.05,0.44-0.13,0.85-0.26c0.2-0.07,0.47-0.19,0.8-0.35
			c0.05,0.24,0.07,0.5,0.07,0.77C171.5,458.14,171.47,458.39,171.43,458.62z"/>
		<path class="st2" d="M181.43,454.41c0,0.92-0.3,1.66-0.89,2.22c-0.59,0.56-1.37,0.83-2.35,0.83l-0.06,1.49h-2.69l-0.14-3.64
			c-0.04-0.94-0.11-2.22-0.2-3.86c0.51-0.1,1.25-0.15,2.23-0.15c1.19,0,2.15,0.24,2.87,0.72
			C181.02,452.56,181.43,453.36,181.43,454.41z M179.41,455.23c0-0.51-0.3-0.76-0.9-0.76c-0.07,0-0.15,0-0.22,0.01l-0.05,1.71
			C179.02,456.17,179.41,455.84,179.41,455.23z"/>
		<path class="st2" d="M187.34,451.45l-0.21,3.09c-0.12-0.02-0.38-0.05-0.78-0.1c-0.27-0.03-0.57-0.04-0.9-0.05l-0.07,0.93
			c0.36,0.01,0.94,0,1.75-0.02c-0.04,0.12-0.09,0.34-0.17,0.67c-0.05,0.2-0.09,0.43-0.12,0.69c-0.09-0.02-0.33-0.05-0.71-0.09
			c-0.18-0.01-0.44-0.01-0.78-0.01l-0.05,1.09c0.24,0,0.69-0.02,1.35-0.06c0.12-0.01,0.33-0.05,0.61-0.12
			c-0.03,0.1-0.09,0.34-0.18,0.73c-0.05,0.2-0.1,0.45-0.17,0.75h-4.37l-0.14-3.83c-0.03-0.88-0.09-2.1-0.19-3.67H187.34z"/>
		<path class="st2" d="M194.75,455.02c0,0.8-0.15,1.53-0.44,2.17c-0.31,0.69-0.75,1.18-1.31,1.46c0.12,0.12,0.29,0.28,0.51,0.48
			c0.3,0.23,0.56,0.4,0.79,0.52c-0.12,0.12-0.32,0.3-0.6,0.53c-0.16,0.11-0.38,0.23-0.66,0.37c-0.23-0.19-0.42-0.37-0.57-0.56
			c-0.18-0.23-0.3-0.42-0.38-0.59c0.07-0.07,0.18-0.21,0.33-0.42c-0.32,0.13-0.63,0.2-0.95,0.2c-1,0-1.81-0.42-2.43-1.26
			c-0.58-0.79-0.87-1.75-0.87-2.9c0-1.23,0.32-2.2,0.95-2.9c0.6-0.65,1.38-0.98,2.35-0.98c0.95,0,1.73,0.33,2.32,0.99
			C194.44,452.83,194.75,453.8,194.75,455.02z M192.4,455.9c0-0.91-0.3-1.36-0.9-1.36c-0.32,0-0.56,0.13-0.72,0.41
			c-0.14,0.24-0.2,0.56-0.19,0.96c0.02,0.37,0.1,0.71,0.24,1.02c0.17,0.35,0.39,0.53,0.64,0.53c0.25,0,0.47-0.18,0.66-0.54
			C192.32,456.59,192.4,456.25,192.4,455.9z"/>
		<path class="st2" d="M202.19,451.45l-0.11,3.16c-0.03,0.9-0.05,2.27-0.05,4.09c-0.83,0.3-1.68,0.45-2.55,0.45
			c-1.07,0-1.88-0.21-2.44-0.64c-0.47-0.36-0.81-0.92-1-1.69c-0.11-0.44-0.22-1.24-0.32-2.41c-0.1-1.08-0.16-2.07-0.18-2.96h3.15
			c-0.02,0.43-0.04,1.13-0.06,2.1c-0.01,0.54-0.01,1.31,0.01,2.3c0,0.75,0.07,1.26,0.2,1.53c0.13,0.28,0.4,0.42,0.8,0.42
			c0.11,0,0.24-0.03,0.38-0.1c0-0.67-0.02-1.74-0.06-3.2c-0.03-0.73-0.09-1.75-0.18-3.05H202.19z"/>
		<path class="st2" d="M208.17,451.45l-0.21,3.09c-0.12-0.02-0.38-0.05-0.78-0.1c-0.27-0.03-0.57-0.04-0.9-0.05l-0.07,0.93
			c0.36,0.01,0.94,0,1.75-0.02c-0.04,0.12-0.09,0.34-0.17,0.67c-0.05,0.2-0.09,0.43-0.12,0.69c-0.09-0.02-0.33-0.05-0.71-0.09
			c-0.18-0.01-0.44-0.01-0.78-0.01l-0.05,1.09c0.24,0,0.69-0.02,1.35-0.06c0.12-0.01,0.33-0.05,0.61-0.12
			c-0.03,0.1-0.09,0.34-0.18,0.73c-0.05,0.2-0.1,0.45-0.17,0.75h-4.37l-0.14-3.83c-0.03-0.88-0.09-2.1-0.19-3.67H208.17z"/>
		<path class="st2" d="M217.49,451.45c-0.05,0.66-0.11,1.8-0.19,3.44c-0.05,1.2-0.09,2.59-0.12,4.16c-0.43-0.33-1.08-0.83-1.95-1.5
			c-0.38-0.26-0.94-0.66-1.69-1.19l-0.05,2.59h-1.57c-0.03-0.66-0.09-1.91-0.18-3.74c-0.08-1.48-0.16-2.74-0.25-3.76h2.45l1.82,1.72
			c0-0.39-0.01-0.7-0.02-0.93c-0.01-0.2-0.03-0.46-0.06-0.79H217.49z"/>
		<path class="st2" d="M224.89,455.04c0,1.15-0.3,2.12-0.89,2.92c-0.62,0.83-1.42,1.25-2.39,1.25c-1,0-1.81-0.42-2.43-1.25
			c-0.58-0.79-0.87-1.76-0.87-2.91c0-1.23,0.32-2.19,0.95-2.89c0.6-0.66,1.38-0.99,2.35-0.99c0.95,0,1.73,0.33,2.32,0.99
			C224.57,452.86,224.89,453.82,224.89,455.04z M222.54,455.9c0-0.91-0.31-1.36-0.92-1.36c-0.6,0-0.89,0.46-0.89,1.37
			c0,0.36,0.08,0.71,0.23,1.02c0.18,0.35,0.39,0.53,0.65,0.53c0.25,0,0.47-0.18,0.66-0.54C222.45,456.59,222.54,456.25,222.54,455.9
			z"/>
		<path class="st2" d="M234.49,454.41c0,0.92-0.3,1.66-0.89,2.22c-0.59,0.56-1.38,0.83-2.35,0.83l-0.06,1.49h-2.69l-0.14-3.64
			c-0.04-0.94-0.11-2.22-0.2-3.86c0.51-0.1,1.25-0.15,2.23-0.15c1.19,0,2.15,0.24,2.87,0.72
			C234.08,452.56,234.49,453.36,234.49,454.41z M232.46,455.23c0-0.51-0.3-0.76-0.9-0.76c-0.07,0-0.14,0-0.22,0.01l-0.05,1.71
			C232.07,456.17,232.46,455.84,232.46,455.23z"/>
		<path class="st2" d="M241.87,451.45l-0.11,3.16c-0.03,0.9-0.05,2.27-0.05,4.09c-0.83,0.3-1.68,0.45-2.55,0.45
			c-1.07,0-1.88-0.21-2.44-0.64c-0.47-0.36-0.81-0.92-1-1.69c-0.11-0.44-0.22-1.24-0.32-2.41c-0.1-1.08-0.16-2.07-0.18-2.96h3.15
			c-0.02,0.43-0.04,1.13-0.06,2.1c-0.01,0.54-0.01,1.31,0.01,2.3c0,0.75,0.07,1.26,0.2,1.53c0.13,0.28,0.4,0.42,0.8,0.42
			c0.11,0,0.24-0.03,0.38-0.1c0-0.67-0.02-1.74-0.06-3.2c-0.03-0.73-0.09-1.75-0.18-3.05H241.87z"/>
		<path class="st2" d="M247.86,451.45l-0.21,3.09c-0.12-0.02-0.38-0.05-0.78-0.1c-0.27-0.03-0.57-0.04-0.9-0.05l-0.07,0.93
			c0.36,0.01,0.94,0,1.75-0.02c-0.04,0.12-0.09,0.34-0.17,0.67c-0.05,0.2-0.09,0.43-0.12,0.69c-0.09-0.02-0.33-0.05-0.71-0.09
			c-0.18-0.01-0.44-0.01-0.78-0.01l-0.05,1.09c0.24,0,0.69-0.02,1.35-0.06c0.12-0.01,0.33-0.05,0.61-0.12
			c-0.03,0.1-0.09,0.34-0.18,0.73c-0.05,0.2-0.1,0.45-0.17,0.75h-4.37l-0.14-3.83c-0.03-0.88-0.09-2.1-0.19-3.67H247.86z"/>
		<path class="st2" d="M255.4,455.26c0,1.17-0.36,2.1-1.09,2.77c-0.75,0.7-1.81,1.05-3.18,1.05c-0.88,0-1.56-0.04-2.04-0.13
			l-0.13-3.63c-0.04-0.93-0.12-2.21-0.23-3.85c0.71-0.1,1.44-0.15,2.21-0.15c1.37,0,2.44,0.32,3.22,0.96
			C254.98,452.96,255.4,453.95,255.4,455.26z M253.39,455.86c0-0.48-0.15-0.83-0.46-1.06c-0.26-0.19-0.59-0.28-0.99-0.26l-0.07,3.06
			c0.42-0.03,0.76-0.16,1.02-0.41C253.23,456.89,253.39,456.45,253.39,455.86z"/>
		<path class="st2" d="M261.35,451.45l-0.21,3.09c-0.12-0.02-0.38-0.05-0.78-0.1c-0.27-0.03-0.57-0.04-0.9-0.05l-0.07,0.93
			c0.36,0.01,0.94,0,1.75-0.02c-0.04,0.12-0.09,0.34-0.17,0.67c-0.05,0.2-0.09,0.43-0.12,0.69c-0.09-0.02-0.33-0.05-0.71-0.09
			c-0.18-0.01-0.44-0.01-0.78-0.01l-0.05,1.09c0.24,0,0.69-0.02,1.35-0.06c0.12-0.01,0.33-0.05,0.61-0.12
			c-0.03,0.1-0.09,0.34-0.18,0.73c-0.05,0.2-0.1,0.45-0.17,0.75h-4.37l-0.14-3.83c-0.03-0.88-0.09-2.1-0.19-3.67H261.35z"/>
		<path class="st2" d="M269.8,451.45l-0.21,3.09c-0.12-0.02-0.38-0.05-0.78-0.1c-0.27-0.03-0.57-0.04-0.9-0.05l-0.07,0.93
			c0.36,0.01,0.94,0,1.75-0.02c-0.04,0.12-0.09,0.34-0.17,0.67c-0.05,0.2-0.09,0.43-0.12,0.69c-0.09-0.02-0.33-0.05-0.71-0.09
			c-0.18-0.01-0.44-0.01-0.78-0.01l-0.05,1.09c0.24,0,0.69-0.02,1.35-0.06c0.12-0.01,0.33-0.05,0.61-0.12
			c-0.03,0.1-0.09,0.34-0.18,0.73c-0.05,0.2-0.1,0.45-0.17,0.75H265l-0.14-3.83c-0.03-0.88-0.09-2.1-0.19-3.67H269.8z"/>
		<path class="st2" d="M276.67,451.45c-0.05,0.66-0.11,1.8-0.19,3.44c-0.05,1.2-0.09,2.59-0.12,4.16c-0.43-0.33-1.08-0.83-1.95-1.5
			c-0.38-0.26-0.94-0.66-1.69-1.19l-0.05,2.59h-1.57c-0.03-0.66-0.09-1.91-0.18-3.74c-0.08-1.48-0.16-2.74-0.25-3.76h2.45l1.82,1.72
			c0-0.39-0.01-0.7-0.02-0.93c-0.01-0.2-0.03-0.46-0.06-0.79H276.67z"/>
		<path class="st2" d="M283.04,454.52c-0.18-0.06-0.41-0.08-0.69-0.08c-0.52,0-0.94,0.14-1.27,0.41c-0.37,0.31-0.55,0.75-0.55,1.32
			c0,0.45,0.15,0.82,0.44,1.11c0.29,0.29,0.67,0.43,1.15,0.43c0.32,0,0.63-0.08,0.92-0.24c-0.03,0.13-0.09,0.38-0.17,0.74
			c-0.05,0.24-0.09,0.49-0.13,0.74c-0.36,0.14-0.83,0.21-1.4,0.21c-1.03,0-1.91-0.35-2.65-1.04c-0.79-0.75-1.19-1.74-1.19-2.95
			c0-1.12,0.34-2.02,1.03-2.71c0.73-0.74,1.74-1.1,3.02-1.1c0.62,0,1.07,0.04,1.34,0.11L283.04,454.52z"/>
		<path class="st2" d="M290.46,455.04c0,1.15-0.3,2.12-0.89,2.92c-0.62,0.83-1.42,1.25-2.39,1.25c-1,0-1.81-0.42-2.43-1.25
			c-0.58-0.79-0.87-1.76-0.87-2.91c0-1.23,0.32-2.19,0.95-2.89c0.6-0.66,1.38-0.99,2.35-0.99c0.95,0,1.73,0.33,2.32,0.99
			C290.15,452.86,290.46,453.82,290.46,455.04z M288.12,455.9c0-0.91-0.31-1.36-0.92-1.36c-0.6,0-0.89,0.46-0.89,1.37
			c0,0.36,0.08,0.71,0.23,1.02c0.18,0.35,0.39,0.53,0.65,0.53c0.25,0,0.47-0.18,0.66-0.54C288.03,456.59,288.12,456.25,288.12,455.9
			z"/>
		<path class="st2" d="M297.29,451.45c-0.05,0.66-0.11,1.8-0.19,3.44c-0.05,1.2-0.09,2.59-0.12,4.16c-0.43-0.33-1.08-0.83-1.95-1.5
			c-0.38-0.26-0.94-0.66-1.69-1.19l-0.05,2.59h-1.57c-0.03-0.66-0.09-1.91-0.18-3.74c-0.08-1.48-0.16-2.74-0.25-3.76h2.45l1.82,1.72
			c0-0.39-0.01-0.7-0.02-0.93c-0.01-0.2-0.03-0.46-0.06-0.79H297.29z"/>
		<path class="st2" d="M304.1,451.45l-0.14,3.07c-0.13-0.02-0.33-0.04-0.61-0.07c-0.17-0.01-0.45-0.02-0.84-0.03
			c-0.02,0.19-0.05,0.66-0.1,1.39c-0.04,0.71-0.09,1.76-0.18,3.14h-2.36c-0.03-0.66-0.08-1.69-0.15-3.1
			c-0.03-0.49-0.07-0.96-0.1-1.43l-0.77,0.03l-0.7,0.07l-0.12-3.07H304.1z"/>
		<path class="st2" d="M311.4,454.26c0,0.6-0.17,1.13-0.5,1.59c-0.3,0.4-0.67,0.69-1.11,0.87c0.09,0.15,0.33,0.45,0.7,0.92
			c0.19,0.21,0.47,0.5,0.85,0.85c-0.15,0.06-0.49,0.2-1.01,0.42c-0.36,0.17-0.71,0.33-1.03,0.49c-0.09-0.12-0.3-0.42-0.63-0.91
			c-0.15-0.25-0.37-0.66-0.66-1.25h-0.01l-0.05,1.71h-2.75c-0.04-0.71-0.09-1.88-0.15-3.51c-0.03-0.96-0.1-2.29-0.2-3.99
			c0.9-0.09,1.71-0.14,2.45-0.14C310.03,451.31,311.4,452.29,311.4,454.26z M309.18,455.31c0-0.31-0.13-0.53-0.39-0.66
			c-0.19-0.1-0.43-0.14-0.72-0.13l-0.03,1.67c0.27,0,0.51-0.06,0.72-0.18C309.04,455.85,309.18,455.62,309.18,455.31z"/>
		<path class="st2" d="M318.1,458.95h-2.67l-0.18-0.65c-0.08,0.03-0.26,0.13-0.56,0.3c-0.19,0.12-0.41,0.29-0.64,0.49l-0.28-0.59
			c-0.06-0.12-0.13-0.28-0.24-0.49l-0.26,0.94h-1.42c0.21-0.8,0.53-2.13,0.97-3.98c0.27-1.24,0.49-2.41,0.67-3.52h2.93
			c0.09,0.51,0.34,1.7,0.75,3.57C317.39,456,317.7,457.31,318.1,458.95z M315.02,457.35c-0.06-0.17-0.15-0.45-0.29-0.84
			c-0.08-0.21-0.21-0.51-0.39-0.89c-0.08,0.19-0.19,0.5-0.35,0.93c-0.09,0.25-0.19,0.58-0.31,1.01c0.1,0,0.32-0.02,0.66-0.06
			C314.55,457.47,314.77,457.42,315.02,457.35z"/>
		<path class="st2" d="M325.29,454.26c0,0.6-0.17,1.13-0.5,1.59c-0.3,0.4-0.67,0.69-1.11,0.87c0.09,0.15,0.33,0.45,0.7,0.92
			c0.19,0.21,0.47,0.5,0.85,0.85c-0.15,0.06-0.49,0.2-1.01,0.42c-0.36,0.17-0.71,0.33-1.03,0.49c-0.09-0.12-0.3-0.42-0.63-0.91
			c-0.15-0.25-0.37-0.66-0.66-1.25h-0.01l-0.05,1.71h-2.75c-0.04-0.71-0.09-1.88-0.15-3.51c-0.03-0.96-0.1-2.29-0.2-3.99
			c0.9-0.09,1.71-0.14,2.45-0.14C323.92,451.31,325.29,452.29,325.29,454.26z M323.07,455.31c0-0.31-0.13-0.53-0.39-0.66
			c-0.19-0.1-0.43-0.14-0.72-0.13l-0.03,1.67c0.27,0,0.51-0.06,0.72-0.18C322.93,455.85,323.07,455.62,323.07,455.31z"/>
		<path class="st2" d="M333.54,457.47c-0.03,0.13-0.09,0.38-0.18,0.74c-0.05,0.21-0.08,0.46-0.12,0.74h-4.42
			c-0.02-0.76-0.06-2.02-0.12-3.78c-0.04-0.9-0.12-2.14-0.23-3.72h3.39l-0.28,6.22c0.32,0,0.79-0.03,1.42-0.1
			C333.13,457.56,333.31,457.52,333.54,457.47z"/>
		<path class="st2" d="M340.19,458.95h-2.67l-0.18-0.65c-0.08,0.03-0.26,0.13-0.56,0.3c-0.19,0.12-0.41,0.29-0.64,0.49l-0.28-0.59
			c-0.06-0.12-0.13-0.28-0.24-0.49l-0.26,0.94h-1.42c0.21-0.8,0.53-2.13,0.97-3.98c0.27-1.24,0.49-2.41,0.67-3.52h2.93
			c0.09,0.51,0.34,1.7,0.75,3.57C339.49,456,339.8,457.31,340.19,458.95z M337.11,457.35c-0.06-0.17-0.15-0.45-0.29-0.84
			c-0.08-0.21-0.21-0.51-0.39-0.89c-0.08,0.19-0.19,0.5-0.35,0.93c-0.09,0.25-0.19,0.58-0.31,1.01c0.1,0,0.32-0.02,0.66-0.06
			C336.64,457.47,336.87,457.42,337.11,457.35z"/>
		<path class="st2" d="M349.6,454.41c0,0.92-0.3,1.66-0.89,2.22c-0.59,0.56-1.38,0.83-2.35,0.83l-0.06,1.49h-2.69l-0.14-3.64
			c-0.04-0.94-0.11-2.22-0.2-3.86c0.51-0.1,1.25-0.15,2.23-0.15c1.19,0,2.15,0.24,2.87,0.72C349.2,452.56,349.6,453.36,349.6,454.41
			z M347.58,455.23c0-0.51-0.3-0.76-0.9-0.76c-0.07,0-0.14,0-0.22,0.01l-0.05,1.71C347.19,456.17,347.58,455.84,347.58,455.23z"/>
		<path class="st2" d="M356.35,458.95h-2.67l-0.18-0.65c-0.08,0.03-0.26,0.13-0.56,0.3c-0.19,0.12-0.41,0.29-0.64,0.49l-0.28-0.59
			c-0.06-0.12-0.13-0.28-0.24-0.49l-0.26,0.94h-1.42c0.21-0.8,0.53-2.13,0.97-3.98c0.27-1.24,0.49-2.41,0.67-3.52h2.93
			c0.09,0.51,0.34,1.7,0.75,3.57C355.64,456,355.95,457.31,356.35,458.95z M354.58,450.05c-0.22,0.14-0.59,0.34-1.11,0.61
			c-0.3,0.13-0.68,0.25-1.15,0.36l-0.2-0.33c-0.06-0.09-0.13-0.22-0.22-0.39c0.2-0.12,0.52-0.32,0.98-0.6
			c0.24-0.16,0.55-0.43,0.92-0.8l0.4,0.61C354.28,449.64,354.41,449.82,354.58,450.05z M353.27,457.35
			c-0.06-0.17-0.15-0.45-0.29-0.84c-0.08-0.21-0.21-0.51-0.39-0.89c-0.08,0.19-0.19,0.5-0.35,0.93c-0.09,0.25-0.19,0.58-0.31,1.01
			c0.1,0,0.32-0.02,0.66-0.06C352.8,457.47,353.02,457.42,353.27,457.35z"/>
		<path class="st2" d="M363.51,455.74c-0.03,0.28-0.08,0.8-0.15,1.57c-0.03,0.46-0.06,1-0.09,1.63c-0.44,0.13-1.07,0.19-1.91,0.19
			c-1.24,0-2.25-0.28-3.03-0.84c-0.92-0.67-1.38-1.66-1.38-2.98c0-1.26,0.4-2.25,1.21-2.96c0.75-0.67,1.75-1,2.98-1
			c0.47,0,0.96,0.04,1.5,0.11l0.27,3.08c-0.21-0.08-0.52-0.12-0.92-0.12c-0.5,0-0.96,0.15-1.37,0.46c-0.46,0.35-0.68,0.79-0.68,1.33
			c0,0.51,0.19,0.9,0.58,1.18c0.33,0.23,0.7,0.34,1.13,0.33l-0.08-0.98c-0.02-0.2-0.06-0.53-0.13-1H363.51z"/>
		<path class="st2" d="M367.6,451.45l-0.19,3.99c-0.04,0.86-0.08,2.03-0.13,3.51h-2.74l-0.33-7.5H367.6z"/>
		<path class="st2" d="M374.45,451.45c-0.05,0.66-0.11,1.8-0.19,3.44c-0.05,1.2-0.09,2.59-0.12,4.16c-0.43-0.33-1.08-0.83-1.95-1.5
			c-0.38-0.26-0.94-0.66-1.69-1.19l-0.05,2.59h-1.57c-0.03-0.66-0.09-1.91-0.18-3.74c-0.08-1.48-0.16-2.74-0.25-3.76h2.45l1.82,1.72
			c0-0.39-0.01-0.7-0.02-0.93c-0.01-0.2-0.03-0.46-0.06-0.79H374.45z"/>
		<path class="st2" d="M381.27,458.95h-2.67l-0.18-0.65c-0.08,0.03-0.26,0.13-0.56,0.3c-0.19,0.12-0.41,0.29-0.64,0.49l-0.28-0.59
			c-0.06-0.12-0.13-0.28-0.24-0.49l-0.26,0.94h-1.42c0.21-0.8,0.53-2.13,0.97-3.98c0.27-1.24,0.49-2.41,0.67-3.52h2.93
			c0.09,0.51,0.34,1.7,0.75,3.57C380.56,456,380.88,457.31,381.27,458.95z M378.19,457.35c-0.06-0.17-0.15-0.45-0.29-0.84
			c-0.08-0.21-0.21-0.51-0.39-0.89c-0.08,0.19-0.19,0.5-0.35,0.93c-0.09,0.25-0.19,0.58-0.31,1.01c0.1,0,0.32-0.02,0.66-0.06
			C377.72,457.47,377.95,457.42,378.19,457.35z"/>
	</g>
	<g>
		<g>
			<path class="st2" d="M287.59,418.71l-0.66,2.5c-0.19,0.69-0.42,1.61-0.68,2.75h-3.02c-0.03,1.92-0.04,3.63-0.04,5.13h-8.63
				c0-1.43-0.03-3.14-0.1-5.13h-11.44c1.43-2.61,2.37-4.41,2.81-5.42c0.65-1.45,1.3-3.3,1.94-5.54c0.59-2.08,0.82-4.63,0.68-7.63
				h5.5c-0.08-2.59-0.2-5.28-0.35-8.05h10.43c-0.15,3.46-0.36,9.1-0.62,16.9c-0.06,1.1-0.12,2.76-0.19,4.96h0.27
				c1.31,0,2.19-0.03,2.63-0.08C286.56,419.05,287.05,418.92,287.59,418.71z M274.49,419.15c-0.04-2.07-0.1-4.6-0.17-7.59
				c-1.1,3.26-2.23,5.79-3.39,7.59H274.49z"/>
			<path class="st2" d="M313.51,412.45c0,4.59-1.12,8.59-3.37,12c-2.29,3.48-5.02,5.21-8.19,5.21c-3.43,0-6.28-1.73-8.52-5.19
				c-2.14-3.31-3.21-7.29-3.21-11.94c0-5.21,1.22-9.21,3.66-12c2.12-2.41,4.85-3.62,8.19-3.62c3.23,0,5.88,1.25,7.96,3.77
				C312.35,403.48,313.51,407.4,313.51,412.45z M305.05,417.06c0-3.86-1.03-5.79-3.1-5.79c-2.03,0-3.04,1.99-3.04,5.98
				c0,1.53,0.27,2.9,0.81,4.1c0.59,1.32,1.34,1.99,2.23,1.99c0.87,0,1.61-0.69,2.23-2.07C304.76,419.96,305.05,418.56,305.05,417.06
				z"/>
		</g>
		<g>
			<path class="st2" d="M158.03,401.14l-0.69,10.16c-0.4-0.06-1.25-0.18-2.57-0.34c-0.9-0.09-1.88-0.14-2.95-0.16l-0.24,3.07
				c1.18,0.03,3.1,0.01,5.76-0.08c-0.12,0.4-0.31,1.13-0.56,2.22c-0.15,0.65-0.28,1.41-0.4,2.26c-0.31-0.08-1.09-0.17-2.33-0.29
				c-0.58-0.03-1.43-0.04-2.57-0.03l-0.16,3.58c0.8-0.01,2.28-0.08,4.43-0.21c0.41-0.03,1.08-0.16,2.01-0.39
				c-0.09,0.33-0.29,1.13-0.6,2.39c-0.15,0.65-0.33,1.48-0.54,2.47h-14.37l-0.47-12.59c-0.09-2.88-0.29-6.9-0.63-12.07H158.03z"/>
			<path class="st2" d="M182.45,410.37c0,1.97-0.55,3.71-1.65,5.23c-0.97,1.33-2.19,2.28-3.66,2.86c0.31,0.48,1.08,1.49,2.3,3.03
				c0.61,0.71,1.54,1.64,2.79,2.79c-0.5,0.18-1.61,0.64-3.32,1.38c-1.2,0.55-2.33,1.08-3.39,1.61c-0.31-0.39-1-1.38-2.07-2.99
				c-0.49-0.81-1.22-2.18-2.17-4.11h-0.03l-0.16,5.62h-9.04c-0.12-2.33-0.28-6.18-0.5-11.54c-0.1-3.16-0.32-7.53-0.66-13.11
				c2.94-0.31,5.63-0.46,8.06-0.46C177.95,400.67,182.45,403.9,182.45,410.37z M175.16,413.83c0-1.02-0.43-1.74-1.28-2.18
				c-0.63-0.32-1.42-0.46-2.38-0.42l-0.1,5.49c0.89,0,1.68-0.2,2.38-0.59C174.7,415.62,175.16,414.85,175.16,413.83z"/>
			<path class="st2" d="M206.42,410.37c0,1.97-0.55,3.71-1.65,5.23c-0.97,1.33-2.19,2.28-3.66,2.86c0.31,0.48,1.08,1.49,2.3,3.03
				c0.61,0.71,1.54,1.64,2.79,2.79c-0.5,0.18-1.61,0.64-3.32,1.38c-1.2,0.55-2.33,1.08-3.39,1.61c-0.31-0.39-1-1.38-2.07-2.99
				c-0.49-0.81-1.22-2.18-2.17-4.11h-0.03l-0.16,5.62h-9.04c-0.12-2.33-0.28-6.18-0.5-11.54c-0.1-3.16-0.32-7.53-0.66-13.11
				c2.94-0.31,5.63-0.46,8.06-0.46C201.92,400.67,206.42,403.9,206.42,410.37z M199.13,413.83c0-1.02-0.43-1.74-1.28-2.18
				c-0.63-0.32-1.42-0.46-2.38-0.42l-0.1,5.49c0.89,0,1.68-0.2,2.38-0.59C198.67,415.62,199.13,414.85,199.13,413.83z"/>
			<path class="st2" d="M230.36,412.93c0,3.78-0.97,6.97-2.92,9.58c-2.04,2.73-4.66,4.09-7.85,4.09c-3.29,0-5.95-1.38-7.98-4.13
				c-1.92-2.59-2.87-5.77-2.87-9.55c0-4.04,1.04-7.2,3.13-9.5c1.97-2.16,4.54-3.24,7.72-3.24c3.12,0,5.67,1.09,7.64,3.26
				C229.31,405.76,230.36,408.92,230.36,412.93z M222.63,415.76c0-2.98-1.01-4.46-3.02-4.46c-1.96,0-2.94,1.5-2.94,4.49
				c0,1.2,0.26,2.32,0.77,3.36c0.58,1.17,1.29,1.75,2.14,1.75c0.82,0,1.55-0.59,2.18-1.78
				C222.35,418.03,222.63,416.92,222.63,415.76z"/>
			<path class="st2" d="M256.56,409.98c0,2.18-0.61,4.12-1.83,5.8c-1.08,1.47-2.43,2.53-4.06,3.17c0.34,0.53,1.19,1.65,2.54,3.36
				c0.68,0.78,1.71,1.81,3.1,3.1c-0.56,0.2-1.79,0.71-3.68,1.53c-1.33,0.6-2.58,1.2-3.75,1.78c-0.34-0.43-1.11-1.53-2.29-3.31
				c-0.55-0.9-1.35-2.42-2.4-4.55h-0.04l-0.18,6.23h-10.02c-0.13-2.59-0.31-6.85-0.55-12.79c-0.11-3.5-0.35-8.34-0.73-14.54
				c3.26-0.34,6.24-0.52,8.93-0.52C251.57,399.23,256.56,402.81,256.56,409.98z M248.48,413.82c0-1.13-0.47-1.93-1.42-2.42
				c-0.7-0.36-1.58-0.51-2.63-0.46l-0.11,6.09c0.98,0,1.86-0.22,2.63-0.66C247.97,415.79,248.48,414.95,248.48,413.82z"/>
		</g>
	</g>
</g>
<g id="numero4">
	<path class="st2" d="M340.37,418.71l-0.66,2.5c-0.19,0.69-0.42,1.61-0.68,2.75H336c-0.03,1.92-0.04,3.63-0.04,5.13h-8.63
		c0-1.43-0.03-3.14-0.1-5.13h-11.44c1.43-2.61,2.37-4.41,2.81-5.42c0.65-1.45,1.3-3.3,1.94-5.54c0.59-2.08,0.82-4.63,0.68-7.63h5.5
		c-0.08-2.59-0.2-5.28-0.35-8.05h10.43c-0.15,3.46-0.36,9.1-0.62,16.9c-0.06,1.1-0.12,2.76-0.19,4.96h0.27
		c1.31,0,2.19-0.03,2.63-0.08C339.34,419.05,339.83,418.92,340.37,418.71z M327.27,419.15c-0.04-2.07-0.1-4.6-0.17-7.59
		c-1.1,3.26-2.23,5.79-3.39,7.59H327.27z"/>
</g>
<g id="boca">
	<path class="st22" d="M232.28,179.63c-2.02,0.49-3.96,1.28-6,1.64c-2.04,0.36-4.29,0.24-5.98-0.97c-1.86-1.32-2.69-3.68-3-5.95
		c-0.22-1.63-0.24-3.31,0.2-4.89c1.02-3.67,4.26-6.28,7.61-8.1c13.09-7.13,30.53-5.25,41.8,4.52c0.85,0.73,1.66,1.51,2.32,2.42
		c2.75,3.81,1.79,9.78-2.01,12.54c-1.39,1.01-3.04,1.6-4.7,2.02c-4.9,1.23-10.99,1.22-15.67-0.91
		C241.97,179.72,237.87,178.27,232.28,179.63z"/>
	<g>
		<path class="st23" d="M260.17,175.91c-7.59-4.83-17.53-5.76-25.87-2.41c-3.77,1.52-7.42,4.2-8.88,7.88
			c0.29-0.03,0.58-0.07,0.87-0.12c2.04-0.36,3.98-1.15,6-1.64c5.59-1.35,9.69,0.1,14.58,2.32c4.68,2.13,10.77,2.13,15.67,0.91
			c1.14-0.28,2.26-0.66,3.31-1.19C264.61,179.3,262.45,177.36,260.17,175.91z"/>
	</g>
	<path class="st16" d="M250.24,179.82c-0.2-0.72-0.48-1.47-1.11-1.89c-0.24-0.15-0.5-0.25-0.78-0.32c-0.9-0.24-1.86-0.24-2.76,0.01
		c-0.22,0.06-0.44,0.14-0.59,0.3c-0.22,0.24-0.24,0.59-0.25,0.91c-0.02,0.75-0.04,1.49-0.06,2.24c0.86,0.33,1.73,0.7,2.62,1.1
		c0.98,0.43,2.01,0.77,3.09,1.02C250.47,181.91,250.52,180.82,250.24,179.82z"/>
	<path class="st16" d="M241.24,176.97c-1.16-0.25-2.85-0.58-3.82,0.11c-0.48,0.34-0.73,1.17-0.81,2.04c2.31,0.04,4.3,0.5,6.24,1.19
		C242.87,177.09,241.39,177,241.24,176.97z"/>
</g>
<g id="lagrimas-hacia-izquierda">
	<path class="st21" d="M435.23,309.29c0,0,4.8-13.26,10.09-9.88C450.61,302.79,438.69,307.57,435.23,309.29z"/>
	<path class="st21" d="M425.13,294.97c0,0-0.71-8.29,3.29-8.04C432.42,287.17,426.7,293.08,425.13,294.97z"/>
	<path class="st21" d="M296.85,110.76c0,0,3.38-10.94,8.35-8.55C310.17,104.59,299.83,109.17,296.85,110.76z"/>
</g>
<g id="lagrimas-hacia-derecha">
	<path class="st21" d="M75.78,299.1c0,0-4.37-15.48-11.43-12.3C57.28,289.98,71.65,296.77,75.78,299.1z"/>
	<path class="st21" d="M190.09,112.54c0,0-2.81-7.83-6.34-5.94C180.21,108.5,187.87,111.49,190.09,112.54z"/>
</g>
<g id="oreja-conejo">
	<path class="st8" d="M166.53,210.65c0,0-20.44-8.42-48.97,13.51c-25.26,19.42,0.35,15.81,9.69,12.27
		c6.34-2.4,33.22-20.73,34.43-22.33C162.9,212.51,166.53,210.65,166.53,210.65z"/>
	<path class="st9" d="M153.7,213.88c0,0-27.79,2.98-37.83,18C109.5,241.42,153.7,213.88,153.7,213.88z"/>
</g>
<g id="lagrima-derecha">
	<path class="st16" d="M218.02,138.75c-14.69-11.56-61.67-38.13-102.03-0.11c-44.02,41.47-32.23,159.33-29.14,184.53
		c-4.23-3.49-9.06-5.95-13.83-8.04c-2.72-1.19-7.29,0.4-5.1,4.75c4.47,8.87,11.93,15.3,20.88,16.84c15,2.45,24.82-0.82,34.33-4.66
		c1.56-0.63,3.14-1.34,4.35-2.69c1.21-1.35,1.99-3.48,1.5-5.4c-0.7-2.78-3.47-3.77-5.83-3.97c-6.39-0.55-12.9,1.57-18.23,5.93
		c2.28-3.07,3.69-7.1,3.94-11.25c0.08-1.32,0.02-2.73-0.57-3.83c-1.48-2.76-5.07-1.79-7.13,0.35c-1.49,1.54-2.66,3.52-3.43,5.71
		c-4.17-34.44-14.49-151.81,34.17-180.6c40.58-24.02,88.82,7.94,88.82,7.94L218.02,138.75z"/>
</g>
<g id="lagrima-izquierda">
	<path class="st16" d="M435.08,328.45c-0.72-2.91-3.56-3.95-5.98-4.16c-6.54-0.57-13.22,1.65-18.68,6.21
		c2.34-3.21,8.3-158.23-31.83-196.04c-42.24-39.8-91.42-11.99-106.8,0.11l-2.83,5.74c0,0,50.5-33.46,92.97-8.32
		c46.54,27.54,41.54,132.48,37,177.89c-0.9-0.41-1.98-0.26-2.88,0.22c-3.19,1.68-4.66,6.6-4.16,10.89c0.5,4.29,2.55,8.03,4.73,11.39
		c-5.21-6.38-11.8-10.98-18.87-13.17c-1.35-0.42-3.1-0.55-3.8,0.95c-0.47,1-0.21,2.28,0.13,3.36c3.14,9.89,12.61,17.86,19.83,18.28
		c15.36,2.57,25.43-0.86,35.17-4.88c1.59-0.66,3.22-1.41,4.46-2.82C434.78,332.69,435.58,330.46,435.08,328.45z"/>
</g>
<g id="ojos">
	<path class="st18" d="M263.05,127.71c-2.51,4.55-4.08,10.33-3.18,15.54c0.25,1.43,0.82,3.38,2.35,3.93
		c1.79,0.64,3.53-0.91,4.63-2.13c3.28-3.66,6.05-8.9,7.31-13.6c0.22-0.82-0.91-1.28-1.36-0.57c-2.64,4.22-4.13,9.26-7.58,12.98
		c-0.97,1.04-2.45,2.42-3.37,0.67c-1.02-1.94-0.71-4.83-0.47-6.9c0.38-3.21,1.23-6.44,2.62-9.35
		C264.3,127.63,263.4,127.08,263.05,127.71L263.05,127.71z"/>
	<path class="st18" d="M226.1,129.95c0.67,2.75,0.81,5.62,0.62,8.43c-0.14,1.98-0.38,4.76-1.69,6.38c-1.11,1.37-2.14-0.15-2.78-1.23
		c-2.34-3.95-2.71-8.65-4.33-12.85c-0.28-0.73-1.5-0.7-1.46,0.2c0.18,4.17,1.62,8.79,3.46,12.55c0.74,1.51,1.89,3.58,3.78,3.78
		c3.63,0.38,4.36-6.18,4.53-8.53c0.22-3.04-0.16-6.12-1.06-9.03C226.95,128.98,225.93,129.26,226.1,129.95L226.1,129.95z"/>
</g>
</svg>
